<?xml version="1.0" standalone="no"?>
<!DOCTYPE svg PUBLIC "-//W3C//DTD SVG 20010904//EN"
 "http://www.w3.org/TR/2001/REC-SVG-20010904/DTD/svg10.dtd">
<svg version="1.0" xmlns="http://www.w3.org/2000/svg"
 width="48.000000pt" height="48.000000pt" viewBox="0 0 48.000000 48.000000"
 preserveAspectRatio="xMidYMid meet">
<metadata>
Created by potrace 1.13, written by Peter Selinger 2001-2015
</metadata>
<g transform="translate(0.000000,48.000000) scale(0.100000,-0.100000)"
fill="#7D0003" stroke="none">
<path d="M160 447 c-35 -11 -120 -87 -120 -107 0 -6 48 -10 131 -10 139 0 164
-7 179 -46 8 -21 16 -24 61 -24 l52 0 -7 31 c-13 68 -74 134 -144 157 -38 13
-45 4 -40 -50 3 -29 7 -33 35 -36 21 -2 41 -14 58 -33 14 -17 32 -29 40 -27
13 2 12 8 -5 36 -25 41 -83 79 -88 57 -6 -27 -22 -16 -22 15 0 28 1 29 28 19
48 -18 122 -102 122 -139 0 -5 -16 -10 -35 -10 -19 0 -35 5 -35 10 0 24 -41
50 -80 50 l-40 0 0 60 c0 33 -4 60 -10 60 -6 0 -10 -27 -10 -60 l0 -60 -80 0
c-44 0 -80 4 -80 9 0 14 79 81 95 81 8 0 18 1 22 3 10 4 13 -42 3 -48 -6 -3
-10 1 -10 9 0 9 -3 16 -6 16 -9 0 -64 -34 -64 -40 0 -3 23 -5 50 -6 l50 0 0
48 c0 26 -3 48 -7 47 -5 -1 -24 -6 -43 -12z"/>
<path d="M20 240 c0 -78 48 -153 122 -191 59 -30 68 -26 68 31 0 48 -1 50 -21
40 -15 -9 -26 -8 -42 2 -12 8 -35 20 -52 27 l-30 13 30 -32 c17 -18 42 -38 58
-46 24 -13 27 -13 27 1 0 8 5 15 10 15 6 0 10 -12 10 -26 0 -24 -3 -25 -27
-19 -65 16 -123 86 -138 168 -7 33 -5 37 14 37 18 0 21 -6 21 -40 0 -30 5 -42
21 -51 19 -10 25 -7 44 17 20 26 25 27 49 16 14 -6 26 -18 26 -26 0 -7 7 -17
16 -20 12 -5 15 -19 13 -66 -1 -33 1 -63 4 -67 4 -3 7 26 7 65 l0 72 85 0 c47
0 85 -2 85 -5 0 -18 -39 -59 -75 -80 -53 -31 -55 -31 -55 5 0 31 16 42 22 15
2 -13 8 -12 36 5 17 11 32 24 32 29 0 4 -23 8 -52 7 l-52 -1 3 -50 c1 -27 4
-52 7 -54 7 -8 69 24 101 53 19 16 41 42 49 57 l15 29 -110 0 c-105 0 -109 1
-125 25 -21 32 -68 34 -90 3 -22 -31 -46 -8 -46 43 0 37 -2 39 -30 39 -28 0
-30 -2 -30 -40z"/>
</g>
</svg>
